# xmcd CD database file
#
# Track frame offsets:
#	150
#	13340
#	25220
#	36849
#	47643
#	61585
#	75945
#	86348
#	99343
#	111781
#
# Disc length: 1638 seconds
#
# Revision: 0
# Processed by: cddbd v1.5.2PL0 Copyright (c) Steve Scherf et al.
# Submitted via: CDex 1.51
#
DISCID=6806640a
DTITLE=Moe Bandy - Rodeo Romeo
DYEAR=1981
DGENRE=Country
TTITLE0=Rodeo  Romeo
TTITLE1=She' s Playin` HardTo Forget
TTITLE2=You've Still Got It
TTITLE3=Daily Double
TTITLE4=I Wonder Where My Wanting You Will End
TTITLE5=Someday Soon
TTITLE6=A Looser And A Fool
TTITLE7=There`s Nothing More Desperate ( Than An Old Desperado)
TTITLE8=The Photograph
TTITLE9=Recycling Memories
EXTD=YEAR: 1981
EXTT0=
EXTT1=
EXTT2=
EXTT3=
EXTT4=
EXTT5=
EXTT6=
EXTT7=
EXTT8=
EXTT9=
PLAYORDER=
